<mxfile host="Electron" modified="2023-12-30T17:58:21.524Z" agent="Mozilla/5.0 (Windows NT 10.0; Win64; x64) AppleWebKit/537.36 (KHTML, like Gecko) draw.io/22.0.3 Chrome/114.0.5735.289 Electron/25.8.4 Safari/537.36" etag="cDmpelM4Asq0b2EYRbB8" version="22.0.3" type="device">
  <diagram name="Page-1" id="jBFQdqgGIIY5_-ZsI0JB">
    <mxGraphModel dx="988" dy="570" grid="1" gridSize="10" guides="1" tooltips="1" connect="1" arrows="1" fold="1" page="1" pageScale="1" pageWidth="827" pageHeight="1169" math="0" shadow="0">
      <root>
        <mxCell id="0" />
        <mxCell id="1" parent="0" />
        <mxCell id="UFqHmvXLqtigZLI-V55T-4" value="Backend" style="rounded=0;whiteSpace=wrap;html=1;" vertex="1" parent="1">
          <mxGeometry x="420" y="265" width="120" height="45" as="geometry" />
        </mxCell>
        <mxCell id="UFqHmvXLqtigZLI-V55T-7" value="User Browser" style="rounded=0;whiteSpace=wrap;html=1;" vertex="1" parent="1">
          <mxGeometry x="220" y="265" width="80" height="45" as="geometry" />
        </mxCell>
        <mxCell id="UFqHmvXLqtigZLI-V55T-8" value="" style="shape=umlActor;verticalLabelPosition=bottom;verticalAlign=top;html=1;outlineConnect=0;" vertex="1" parent="1">
          <mxGeometry x="120" y="257.5" width="30" height="60" as="geometry" />
        </mxCell>
        <mxCell id="UFqHmvXLqtigZLI-V55T-9" value="" style="endArrow=classic;html=1;rounded=0;exitX=1;exitY=0.25;exitDx=0;exitDy=0;entryX=0;entryY=0.25;entryDx=0;entryDy=0;" edge="1" parent="1" source="UFqHmvXLqtigZLI-V55T-7" target="UFqHmvXLqtigZLI-V55T-4">
          <mxGeometry width="50" height="50" relative="1" as="geometry">
            <mxPoint x="360" y="340" as="sourcePoint" />
            <mxPoint x="410" y="290" as="targetPoint" />
          </mxGeometry>
        </mxCell>
        <mxCell id="UFqHmvXLqtigZLI-V55T-10" value="page request" style="edgeLabel;html=1;align=center;verticalAlign=middle;resizable=0;points=[];" vertex="1" connectable="0" parent="UFqHmvXLqtigZLI-V55T-9">
          <mxGeometry x="-0.2752" relative="1" as="geometry">
            <mxPoint x="16" as="offset" />
          </mxGeometry>
        </mxCell>
        <mxCell id="UFqHmvXLqtigZLI-V55T-11" value="" style="endArrow=classic;html=1;rounded=0;exitX=0;exitY=0.75;exitDx=0;exitDy=0;entryX=1;entryY=0.75;entryDx=0;entryDy=0;" edge="1" parent="1" source="UFqHmvXLqtigZLI-V55T-4" target="UFqHmvXLqtigZLI-V55T-7">
          <mxGeometry width="50" height="50" relative="1" as="geometry">
            <mxPoint x="330" y="350" as="sourcePoint" />
            <mxPoint x="380" y="300" as="targetPoint" />
          </mxGeometry>
        </mxCell>
        <mxCell id="UFqHmvXLqtigZLI-V55T-12" value="page" style="edgeLabel;html=1;align=center;verticalAlign=middle;resizable=0;points=[];" vertex="1" connectable="0" parent="UFqHmvXLqtigZLI-V55T-11">
          <mxGeometry x="0.045" y="-1" relative="1" as="geometry">
            <mxPoint as="offset" />
          </mxGeometry>
        </mxCell>
        <mxCell id="UFqHmvXLqtigZLI-V55T-17" value="" style="endArrow=classic;html=1;rounded=0;entryX=0;entryY=0.5;entryDx=0;entryDy=0;" edge="1" parent="1" source="UFqHmvXLqtigZLI-V55T-8" target="UFqHmvXLqtigZLI-V55T-7">
          <mxGeometry width="50" height="50" relative="1" as="geometry">
            <mxPoint x="360" y="290" as="sourcePoint" />
            <mxPoint x="410" y="240" as="targetPoint" />
          </mxGeometry>
        </mxCell>
        <mxCell id="UFqHmvXLqtigZLI-V55T-18" value="URL" style="edgeLabel;html=1;align=center;verticalAlign=middle;resizable=0;points=[];" vertex="1" connectable="0" parent="UFqHmvXLqtigZLI-V55T-17">
          <mxGeometry x="-0.2343" y="2" relative="1" as="geometry">
            <mxPoint as="offset" />
          </mxGeometry>
        </mxCell>
      </root>
    </mxGraphModel>
  </diagram>
</mxfile>
